<svg xmlns="http://www.w3.org/2000/svg" xmlns:xlink="http://www.w3.org/1999/xlink" width="64" zoomAndPan="magnify" viewBox="0 0 48 30.000001" height="40" preserveAspectRatio="xMidYMid meet" version="1.0"><defs><clipPath id="10bc710184"><path d="M 1.253906 3.761719 L 46.976562 3.761719 L 46.976562 25.535156 L 1.253906 25.535156 Z M 1.253906 3.761719 " clip-rule="nonzero"/></clipPath></defs><g clip-path="url(#10bc710184)"><path fill="#635042" d="M 37.316406 24.90625 L 46.34375 15.808594 C 46.972656 15.179688 46.972656 14.140625 46.34375 13.511719 L 37.316406 4.394531 C 36.691406 3.761719 35.660156 3.761719 35.035156 4.394531 C 34.40625 5.023438 34.40625 6.0625 35.035156 6.691406 L 41.316406 13.023438 L 2.875 13.023438 C 1.984375 13.023438 1.257812 13.753906 1.257812 14.648438 C 1.257812 15.546875 1.984375 16.277344 2.875 16.277344 L 41.296875 16.277344 L 35.011719 22.605469 C 34.691406 22.933594 34.546875 23.339844 34.546875 23.765625 C 34.546875 24.195312 34.710938 24.601562 35.011719 24.925781 C 35.660156 25.535156 36.691406 25.535156 37.316406 24.90625 Z M 37.316406 24.90625 " fill-opacity="1" fill-rule="nonzero"/></g></svg>