<svg width="134" height="102" viewBox="0 0 134 102" fill="none" xmlns="http://www.w3.org/2000/svg">
<g clip-path="url(#clip0_30_209)">
<rect width="130" height="42.7014" transform="translate(133.934 36.9805) rotate(150)" fill="white"/>
<path d="M19.1595 72.6475C19.3921 72.5132 19.667 72.4521 19.9511 72.4884C20.6304 72.5816 21.1034 73.2022 21.0081 73.8813L19.1662 86.9274L29.9871 79.5525C30.5452 79.1559 31.3222 79.3056 31.7105 79.8698C32.0958 80.4332 31.9459 81.2029 31.3792 81.5891L18.243 90.5421C17.868 90.7997 17.3064 90.8337 16.8894 90.5763C16.4734 90.3208 16.2481 89.8448 16.3185 89.3573L18.5503 73.5514C18.6027 73.1591 18.8409 72.8315 19.1595 72.6475Z" fill="#635042"/>
<path d="M54.9886 53.1444C56.4163 50.8524 57.315 48.6758 57.1127 47.1785C57.0187 46.4626 56.6739 45.9432 56.0316 45.5469C55.377 45.142 54.9223 45.0364 54.6015 45.255C53.7281 45.8913 53.3739 48.665 53.7559 50.1926C54.0355 51.3111 54.4454 52.2947 54.9886 53.1444ZM53.5102 43.0317C54.2792 42.6223 55.5809 42.3451 57.3522 43.443C58.6134 44.2203 59.382 45.3934 59.5741 46.8331C59.909 49.3307 58.4418 52.4097 56.699 55.0659C57.5481 55.7553 58.5663 56.2916 59.7537 56.6799C69.8306 59.9777 89.098 51.3204 94.8811 46.6292C104.069 39.1779 115.242 25.3887 116.487 11.0396C116.547 10.3578 117.15 9.8528 117.832 9.9054C118.514 9.958 119.02 10.5552 118.963 11.236C117.649 26.3599 106.009 40.7857 96.4394 48.5434C90.6355 53.2483 70.3185 62.7491 58.963 59.0308C57.5468 58.5678 56.3122 57.9224 55.2594 57.0996C54.107 58.6252 53.0165 59.8583 52.3904 60.5368C48.9466 64.2725 44.0715 67.1752 38.9099 70.2556C30.496 75.2715 21.7925 80.4593 18.4607 89.7666C18.2283 90.4068 17.5184 90.7495 16.8743 90.5229C16.2292 90.2995 15.8919 89.5921 16.1222 88.948C19.758 78.7985 29.2615 73.1345 37.6495 68.1324C42.6469 65.1519 47.3698 62.3378 50.5691 58.8684C51.5847 57.7684 52.5852 56.5631 53.4927 55.3366C52.5062 54.0805 51.7905 52.5692 51.3488 50.8088C50.9018 49.0286 50.9699 44.8502 53.1423 43.2628C53.2475 43.1866 53.3707 43.1059 53.5102 43.0317Z" fill="#635042"/>
</g>
<defs>
<clipPath id="clip0_30_209">
<rect width="130" height="42.7014" fill="white" transform="translate(133.934 36.9805) rotate(150)"/>
</clipPath>
</defs>
</svg>
