<svg width="62" height="29" viewBox="0 0 62 29" fill="none" xmlns="http://www.w3.org/2000/svg">
<path d="M48.7552 28.2083L60.7917 16.0781C61.6302 15.2396 61.6302 13.8542 60.7917 13.0156L48.7552 0.859374C47.9219 0.0156252 46.5469 0.0156252 45.7136 0.859374C44.875 1.69792 44.875 3.08333 45.7136 3.92187L54.0885 12.3646H2.83334C1.64584 12.3646 0.677094 13.3385 0.677094 14.5312C0.677094 15.7292 1.64584 16.7031 2.83334 16.7031H54.0625L45.6823 25.1406C45.2552 25.5781 45.0625 26.1198 45.0625 26.6875C45.0625 27.2604 45.2813 27.8021 45.6823 28.2344C46.5469 29.0469 47.9219 29.0469 48.7552 28.2083Z" fill="#635042"/>
</svg>
