<svg width="11" height="10" viewBox="0 0 11 10" fill="none" xmlns="http://www.w3.org/2000/svg">
<path d="M9.93784 4.20649H8.80404C8.73966 4.20649 8.67807 4.23334 8.63467 4.28033L5.57061 7.66781V0.107411C5.57061 0.048335 5.52022 0 5.45863 0H4.61878C4.55719 0 4.5068 0.048335 4.5068 0.107411V7.66781L1.44274 4.28033C1.40075 4.23334 1.33916 4.20649 1.27337 4.20649H0.139569C0.0443854 4.20649 -0.00740548 4.31524 0.0555834 4.38371L4.70137 9.51931C4.74336 9.56578 4.79528 9.60305 4.8536 9.62859C4.91193 9.65413 4.97529 9.66735 5.03941 9.66735C5.10352 9.66735 5.16689 9.65413 5.22521 9.62859C5.28353 9.60305 5.33545 9.56578 5.37745 9.51931L10.0218 4.38371C10.0848 4.3139 10.033 4.20649 9.93784 4.20649Z" fill="white"/>
</svg>
