<svg width="39" height="19" viewBox="0 0 39 19" fill="none" xmlns="http://www.w3.org/2000/svg">
<path d="M8.90299 1.24479L1.3802 8.82617C0.856117 9.35026 0.856117 10.2161 1.3802 10.7402L8.90299 18.3379C9.42382 18.8652 10.2832 18.8652 10.804 18.3379C11.3281 17.8138 11.3281 16.9479 10.804 16.4238L5.56966 11.1471L37.6042 11.1471C38.3463 11.1471 38.9518 10.5384 38.9518 9.79297C38.9518 9.04427 38.3463 8.43555 37.6042 8.43555L5.58593 8.43555L10.8236 3.16211C11.0905 2.88867 11.2109 2.55013 11.2109 2.19531C11.2109 1.83724 11.0742 1.4987 10.8236 1.22852C10.2832 0.720705 9.42382 0.720705 8.90299 1.24479Z" fill="#29261F"/>
</svg>
