<svg width="33" height="24" viewBox="0 0 33 24" fill="none" xmlns="http://www.w3.org/2000/svg">
<path d="M24.0509 0C19.6253 0 16.0358 3.17251 16.0358 7.08235C16.0358 3.17251 12.4436 0 8.01792 0C3.59228 0 0 3.17251 0 7.08235C0 14.902 11.2234 23.0051 16.0358 23.0051C20.8454 23.0051 32.0688 14.902 32.0688 7.08235C32.0688 3.17251 28.4765 0 24.0509 0Z" fill="#635042"/>
<path d="M3.5311 7.27859C3.03263 7.27859 2.64899 6.94032 2.64899 6.49849C2.64899 4.21113 4.76813 2.34029 7.35701 2.34029C7.85809 2.34029 8.23912 2.67856 8.23912 3.12038C8.23912 3.5622 7.85809 3.90048 7.35701 3.90048C5.73896 3.90048 4.41581 5.06947 4.41581 6.49849C4.41581 6.94032 4.03217 7.27859 3.5311 7.27859Z" fill="white"/>
</svg>
