<svg width="33" height="27" viewBox="0 0 33 27" fill="none" xmlns="http://www.w3.org/2000/svg">
<path d="M24.2853 0C19.8597 0 16.2702 3.59024 16.2702 8.0149C16.2702 3.59024 12.678 0 8.25232 0C3.82668 0 0.234406 3.59024 0.234406 8.0149C0.234406 16.8642 11.4578 26.0342 16.2702 26.0342C21.0798 26.0342 32.3032 16.8642 32.3032 8.0149C32.3032 3.59024 28.7109 0 24.2853 0Z" fill="#D0C8BD"/>
<path d="M3.76549 8.23698C3.26703 8.23698 2.88339 7.85417 2.88339 7.35417C2.88339 4.76562 5.00252 2.64844 7.59141 2.64844C8.09249 2.64844 8.47351 3.03125 8.47351 3.53125C8.47351 4.03125 8.09249 4.41406 7.59141 4.41406C5.97336 4.41406 4.6502 5.73698 4.6502 7.35417C4.6502 7.85417 4.26657 8.23698 3.76549 8.23698Z" fill="white"/>
</svg>
