<svg xmlns="http://www.w3.org/2000/svg" xmlns:xlink="http://www.w3.org/1999/xlink" width="64" zoomAndPan="magnify" viewBox="0 0 48 48" height="64" preserveAspectRatio="xMidYMid meet" version="1.0"><defs><clipPath id="c32906378e"><path d="M 2.050781 9 L 46.132812 9 L 46.132812 39.4375 L 2.050781 39.4375 Z M 2.050781 9 " clip-rule="nonzero"/></clipPath><clipPath id="1871390b1a"><path d="M 4 7.84375 L 44 7.84375 L 44 28 L 4 28 Z M 4 7.84375 " clip-rule="nonzero"/></clipPath></defs><g clip-path="url(#c32906378e)"><path fill="#29261d" d="M 24.929688 30.804688 C 24.636719 31.101562 24.238281 31.265625 23.820312 31.265625 C 23.402344 31.265625 23.003906 31.101562 22.707031 30.804688 L 2.222656 10.230469 C 2.164062 10.484375 2.070312 10.726562 2.070312 11.003906 L 2.070312 36.277344 C 2.070312 38.023438 3.476562 39.4375 5.21875 39.4375 L 42.96875 39.4375 C 44.699219 39.4375 46.113281 38.023438 46.113281 36.277344 L 46.113281 11.003906 C 46.113281 10.570312 46.019531 10.15625 45.867188 9.78125 Z M 24.929688 30.804688 " fill-opacity="1" fill-rule="nonzero"/></g><g clip-path="url(#1871390b1a)"><path fill="#29261d" d="M 23.820312 27.453125 L 43.28125 7.90625 C 43.171875 7.894531 43.078125 7.84375 42.96875 7.84375 L 5.21875 7.84375 C 4.941406 7.84375 4.703125 7.933594 4.449219 7.996094 Z M 23.820312 27.453125 " fill-opacity="1" fill-rule="nonzero"/></g></svg>