<svg xmlns="http://www.w3.org/2000/svg" xmlns:xlink="http://www.w3.org/1999/xlink" width="64" zoomAndPan="magnify" viewBox="0 0 48 48" height="64" preserveAspectRatio="xMidYMid meet" version="1.0"><defs><clipPath id="b8c5ac5e5f"><path d="M 3 19 L 45 19 L 45 39.824219 L 3 39.824219 Z M 3 19 " clip-rule="nonzero"/></clipPath><clipPath id="728a3c7ee8"><path d="M 2.128906 7.5 L 46.210938 7.5 L 46.210938 29 L 2.128906 29 Z M 2.128906 7.5 " clip-rule="nonzero"/></clipPath></defs><g clip-path="url(#b8c5ac5e5f)"><path fill="#29261d" d="M 24.171875 39.8125 L 3.90625 39.8125 C 3.90625 35.921875 4.992188 32.28125 6.894531 29.195312 C 7.707031 29.445312 8.574219 29.574219 9.480469 29.574219 C 14.4375 29.574219 18.464844 25.539062 18.464844 20.574219 L 18.464844 20.335938 C 20.273438 19.8125 22.191406 19.523438 24.171875 19.523438 C 26.164062 19.523438 28.078125 19.8125 29.902344 20.351562 C 29.890625 20.558594 29.875 20.757812 29.875 20.96875 C 29.875 25.933594 33.902344 29.96875 38.863281 29.96875 C 39.832031 29.96875 40.765625 29.8125 41.644531 29.535156 C 43.414062 32.558594 44.4375 36.066406 44.4375 39.824219 L 24.171875 39.824219 Z M 24.171875 23.871094 C 27.527344 23.871094 30.246094 26.59375 30.246094 29.957031 C 30.246094 33.320312 27.527344 36.039062 24.171875 36.039062 C 20.8125 36.039062 18.097656 33.320312 18.097656 29.957031 C 18.097656 26.59375 20.8125 23.871094 24.171875 23.871094 Z M 24.171875 23.871094 " fill-opacity="1" fill-rule="evenodd"/></g><g clip-path="url(#728a3c7ee8)"><path fill="#29261d" d="M 16.011719 17.210938 C 16.535156 18.222656 16.824219 19.363281 16.824219 20.585938 C 16.824219 24.648438 13.53125 27.945312 9.480469 27.945312 C 5.425781 27.945312 2.132812 24.648438 2.132812 20.585938 C 2.132812 19.285156 2.476562 18.078125 3.050781 17.011719 C 5.664062 11.519531 14.121094 7.5 24.171875 7.5 C 35.464844 7.5 44.765625 12.582031 45.972656 19.128906 C 46.128906 19.71875 46.207031 20.335938 46.207031 20.96875 C 46.207031 25.027344 42.914062 28.328125 38.863281 28.328125 C 34.808594 28.328125 31.515625 25.027344 31.515625 20.96875 C 31.515625 19.640625 31.871094 18.40625 32.472656 17.339844 C 30.703125 15.722656 27.648438 14.660156 24.171875 14.660156 C 20.785156 14.660156 17.796875 15.671875 16.011719 17.210938 Z M 16.011719 17.210938 " fill-opacity="1" fill-rule="evenodd"/></g></svg>