<svg width="171" height="12" viewBox="0 0 171 12" fill="none" xmlns="http://www.w3.org/2000/svg">
<path d="M2.05416 5C2.00691 4.37344 1.0542 6.5 9.5542 4.5C12.0359 3.91607 17.9674 2.54914 20.1228 2.09728C24.7334 1.13071 30.3352 7.6876 35.1228 7.59731C41.554 7.47601 45.238 1.99193 51.6228 2.59731C60.1124 3.40225 61.4239 7.43463 69.6228 9.09731C76.4919 10.4903 87.6294 5.95943 94.6228 4.81234C100.936 3.77689 110.649 10.7948 117.123 10.0973C119.982 9.78925 127.554 4.5 130.054 4C132.411 3.52859 134.058 3.26429 138.123 4.81234C142.554 6.5 146.228 9.84146 151.623 10.0973C155.168 10.2654 157.123 9.90981 160.623 8.59731C164.623 7.09731 166.46 7.01661 170.623 7.09731" stroke="#D0C8BD" stroke-width="3" stroke-linecap="round"/>
</svg>
