<svg xmlns="http://www.w3.org/2000/svg" xmlns:xlink="http://www.w3.org/1999/xlink" width="64" zoomAndPan="magnify" viewBox="0 0 48 48" height="64" preserveAspectRatio="xMidYMid meet" version="1.0"><defs><clipPath id="95715c3292"><path d="M 1.886719 1.394531 L 45.96875 1.394531 L 45.96875 45.476562 L 1.886719 45.476562 Z M 1.886719 1.394531 " clip-rule="nonzero"/></clipPath><clipPath id="a8b39c0927"><path d="M 11 1.394531 L 37 1.394531 L 37 45.476562 L 11 45.476562 Z M 11 1.394531 " clip-rule="nonzero"/></clipPath><clipPath id="9ea29b1a64"><path d="M 23 1.394531 L 25 1.394531 L 25 45.476562 L 23 45.476562 Z M 23 1.394531 " clip-rule="nonzero"/></clipPath><clipPath id="c4554d1884"><path d="M 1.886719 22 L 45.96875 22 L 45.96875 24 L 1.886719 24 Z M 1.886719 22 " clip-rule="nonzero"/></clipPath></defs><g clip-path="url(#95715c3292)"><path fill="#29261d" d="M 23.910156 2.347656 C 12.292969 2.347656 2.835938 11.800781 2.835938 23.421875 C 2.835938 35.042969 12.292969 44.496094 23.910156 44.496094 C 35.53125 44.496094 44.988281 35.042969 44.988281 23.421875 C 44.988281 11.800781 35.53125 2.347656 23.910156 2.347656 Z M 23.910156 45.460938 C 18.023438 45.460938 12.492188 43.167969 8.328125 39.003906 C 4.167969 34.84375 1.875 29.308594 1.875 23.421875 C 1.875 17.535156 4.167969 12 8.328125 7.839844 C 12.492188 3.675781 18.023438 1.382812 23.910156 1.382812 C 29.796875 1.382812 35.332031 3.675781 39.496094 7.839844 C 43.65625 12 45.949219 17.535156 45.949219 23.421875 C 45.949219 29.308594 43.65625 34.84375 39.496094 39.003906 C 35.332031 43.167969 29.796875 45.460938 23.910156 45.460938 Z M 23.910156 45.460938 " fill-opacity="1" fill-rule="evenodd"/></g><path fill="#29261d" d="M 40.699219 37.425781 C 40.621094 37.425781 40.539062 37.402344 40.460938 37.359375 C 36.414062 35.039062 30.382812 33.707031 23.910156 33.707031 C 17.441406 33.707031 11.410156 35.039062 7.363281 37.359375 C 7.132812 37.492188 6.835938 37.414062 6.703125 37.183594 C 6.574219 36.953125 6.652344 36.65625 6.882812 36.527344 C 11.070312 34.121094 17.277344 32.742188 23.910156 32.742188 C 30.542969 32.742188 36.75 34.121094 40.941406 36.527344 C 41.171875 36.65625 41.25 36.953125 41.117188 37.183594 C 41.03125 37.335938 40.867188 37.425781 40.699219 37.425781 Z M 40.699219 37.425781 " fill-opacity="1" fill-rule="evenodd"/><g clip-path="url(#a8b39c0927)"><path fill="#29261d" d="M 23.910156 2.347656 C 20.957031 2.347656 18.160156 4.5 16.027344 8.410156 C 13.847656 12.410156 12.648438 17.742188 12.648438 23.421875 C 12.648438 29.101562 13.847656 34.433594 16.027344 38.433594 C 18.160156 42.34375 20.957031 44.496094 23.910156 44.496094 C 26.863281 44.496094 29.664062 42.34375 31.792969 38.433594 C 33.972656 34.433594 35.175781 29.101562 35.175781 23.421875 C 35.175781 17.742188 33.972656 12.410156 31.792969 8.410156 C 29.664062 4.5 26.863281 2.347656 23.910156 2.347656 Z M 23.910156 45.460938 C 20.589844 45.460938 17.492188 43.128906 15.183594 38.894531 C 12.929688 34.753906 11.6875 29.257812 11.6875 23.421875 C 11.6875 17.585938 12.929688 12.089844 15.183594 7.949219 C 17.492188 3.714844 20.589844 1.382812 23.910156 1.382812 C 27.234375 1.382812 30.332031 3.714844 32.636719 7.949219 C 34.894531 12.089844 36.136719 17.585938 36.136719 23.421875 C 36.136719 29.257812 34.894531 34.753906 32.636719 38.894531 C 30.332031 43.128906 27.234375 45.460938 23.910156 45.460938 Z M 23.910156 45.460938 " fill-opacity="1" fill-rule="evenodd"/></g><g clip-path="url(#9ea29b1a64)"><path fill="#29261d" d="M 23.910156 45.460938 C 23.644531 45.460938 23.429688 45.246094 23.429688 44.980469 L 23.429688 1.863281 C 23.429688 1.597656 23.644531 1.382812 23.910156 1.382812 C 24.175781 1.382812 24.394531 1.597656 24.394531 1.863281 L 24.394531 44.976562 C 24.394531 45.242188 24.175781 45.460938 23.910156 45.460938 Z M 23.910156 45.460938 " fill-opacity="1" fill-rule="evenodd"/></g><path fill="#29261d" d="M 23.910156 14.265625 C 17.222656 14.265625 10.980469 12.867188 6.789062 10.429688 C 6.558594 10.296875 6.480469 10.003906 6.613281 9.773438 C 6.746094 9.542969 7.042969 9.464844 7.273438 9.597656 C 11.320312 11.953125 17.386719 13.304688 23.910156 13.304688 C 30.4375 13.304688 36.503906 11.953125 40.550781 9.597656 C 40.78125 9.464844 41.074219 9.542969 41.207031 9.773438 C 41.34375 10.003906 41.265625 10.296875 41.035156 10.429688 C 36.84375 12.867188 30.601562 14.265625 23.910156 14.265625 Z M 23.910156 14.265625 " fill-opacity="1" fill-rule="evenodd"/><g clip-path="url(#c4554d1884)"><path fill="#29261d" d="M 45.46875 23.902344 L 2.355469 23.902344 C 2.089844 23.902344 1.875 23.6875 1.875 23.421875 C 1.875 23.15625 2.089844 22.941406 2.355469 22.941406 L 45.46875 22.941406 C 45.734375 22.941406 45.949219 23.15625 45.949219 23.421875 C 45.949219 23.6875 45.734375 23.902344 45.46875 23.902344 Z M 45.46875 23.902344 " fill-opacity="1" fill-rule="evenodd"/></g></svg>