<svg xmlns="http://www.w3.org/2000/svg" xmlns:xlink="http://www.w3.org/1999/xlink" width="64" zoomAndPan="magnify" viewBox="0 0 48 48" height="64" preserveAspectRatio="xMidYMid meet" version="1.0"><defs><clipPath id="b0e23e2ff6"><path d="M 1.921875 1.433594 L 46.003906 1.433594 L 46.003906 45.515625 L 1.921875 45.515625 Z M 1.921875 1.433594 " clip-rule="nonzero"/></clipPath></defs><g clip-path="url(#b0e23e2ff6)"><path fill="#29261d" d="M 34.949219 1.433594 L 12.941406 1.433594 C 6.890625 1.433594 1.921875 6.402344 1.921875 12.488281 L 1.921875 34.492188 C 1.921875 40.546875 6.890625 45.515625 12.941406 45.515625 L 34.949219 45.515625 C 41.035156 45.515625 46.003906 40.546875 46.003906 34.457031 L 46.003906 12.488281 C 46.003906 6.402344 41.035156 1.433594 34.949219 1.433594 Z M 29.875 23.472656 L 25.710938 23.472656 L 25.710938 37.117188 L 20.464844 37.117188 L 20.464844 23.472656 L 17.664062 23.472656 L 17.664062 17.875 L 20.113281 17.875 L 20.113281 15.496094 C 20.113281 13.257812 21.234375 9.722656 25.957031 9.722656 L 30.261719 9.722656 L 30.261719 14.378906 L 27.21875 14.378906 C 26.726562 14.378906 26.0625 14.691406 26.0625 15.777344 L 26.0625 17.875 L 30.367188 17.875 Z M 29.875 23.472656 " fill-opacity="1" fill-rule="nonzero"/></g></svg>