<svg xmlns="http://www.w3.org/2000/svg" xmlns:xlink="http://www.w3.org/1999/xlink" width="64" zoomAndPan="magnify" viewBox="0 0 48 48" height="64" preserveAspectRatio="xMidYMid meet" version="1.0"><defs><clipPath id="5d9e27f8a4"><path d="M 1.113281 0.625 L 46.652344 0.625 L 46.652344 46.175781 L 1.113281 46.175781 Z M 1.113281 0.625 " clip-rule="nonzero"/></clipPath></defs><g clip-path="url(#5d9e27f8a4)"><path fill="#040606" d="M 35.320312 16.613281 L 12.441406 16.613281 L 12.441406 14.785156 L 35.320312 14.785156 Z M 35.320312 24.316406 L 12.441406 24.316406 L 12.441406 22.484375 L 35.320312 22.484375 Z M 35.320312 32.023438 L 12.441406 32.023438 L 12.441406 30.191406 L 35.320312 30.1875 Z M 39.988281 7.289062 C 35.71875 3.023438 29.921875 0.625 23.886719 0.625 C 17.84375 0.625 12.054688 3.027344 7.78125 7.296875 C 3.511719 11.566406 1.113281 17.359375 1.113281 23.398438 C 1.113281 29.441406 3.511719 35.234375 7.78125 39.503906 C 12.054688 43.773438 17.84375 46.175781 23.886719 46.175781 C 29.921875 46.179688 35.71875 43.78125 39.988281 39.511719 C 44.253906 35.234375 46.648438 29.441406 46.648438 23.398438 C 46.648438 17.359375 44.253906 11.566406 39.988281 7.289062 " fill-opacity="1" fill-rule="nonzero"/></g></svg>