<svg xmlns="http://www.w3.org/2000/svg" xmlns:xlink="http://www.w3.org/1999/xlink" width="64" zoomAndPan="magnify" viewBox="0 0 48 48" height="64" preserveAspectRatio="xMidYMid meet" version="1.0"><defs><clipPath id="40a4480abf"><path d="M 2.179688 1.691406 L 45.527344 1.691406 L 45.527344 45.035156 L 2.179688 45.035156 Z M 2.179688 1.691406 " clip-rule="nonzero"/></clipPath></defs><g clip-path="url(#40a4480abf)"><path fill="#29261d" d="M 23.84375 5.597656 C 29.628906 5.597656 30.3125 5.617188 32.601562 5.722656 C 34.707031 5.816406 35.859375 6.167969 36.628906 6.472656 C 37.632812 6.859375 38.355469 7.335938 39.117188 8.097656 C 39.875 8.855469 40.339844 9.578125 40.738281 10.585938 C 41.035156 11.34375 41.386719 12.492188 41.488281 14.609375 C 41.59375 16.898438 41.613281 17.585938 41.613281 23.367188 C 41.613281 29.152344 41.59375 29.835938 41.488281 32.125 C 41.394531 34.234375 41.042969 35.382812 40.738281 36.152344 C 40.351562 37.160156 39.875 37.878906 39.117188 38.640625 C 38.355469 39.398438 37.632812 39.867188 36.628906 40.265625 C 35.867188 40.558594 34.71875 40.910156 32.601562 41.015625 C 30.3125 41.117188 29.628906 41.136719 23.84375 41.136719 C 18.058594 41.136719 17.375 41.117188 15.085938 41.015625 C 12.976562 40.917969 11.828125 40.566406 11.058594 40.265625 C 10.054688 39.875 9.332031 39.398438 8.570312 38.640625 C 7.8125 37.878906 7.347656 37.160156 6.949219 36.152344 C 6.652344 35.390625 6.300781 34.242188 6.195312 32.125 C 6.09375 29.835938 6.074219 29.152344 6.074219 23.367188 C 6.074219 17.585938 6.09375 16.898438 6.195312 14.609375 C 6.292969 12.503906 6.644531 11.355469 6.949219 10.585938 C 7.335938 9.578125 7.8125 8.855469 8.570312 8.097656 C 9.332031 7.335938 10.054688 6.871094 11.058594 6.472656 C 11.820312 6.175781 12.96875 5.824219 15.085938 5.722656 C 17.375 5.617188 18.058594 5.597656 23.84375 5.597656 M 23.84375 1.695312 C 17.953125 1.695312 17.222656 1.722656 14.90625 1.828125 C 12.597656 1.933594 11.023438 2.300781 9.644531 2.835938 C 8.21875 3.386719 7.015625 4.125 5.808594 5.332031 C 4.609375 6.539062 3.871094 7.746094 3.320312 9.167969 C 2.789062 10.546875 2.417969 12.121094 2.3125 14.429688 C 2.207031 16.738281 2.179688 17.480469 2.179688 23.359375 C 2.179688 29.246094 2.207031 29.976562 2.3125 32.296875 C 2.417969 34.605469 2.789062 36.179688 3.320312 37.558594 C 3.871094 38.980469 4.609375 40.1875 5.816406 41.394531 C 7.023438 42.601562 8.230469 43.339844 9.652344 43.890625 C 11.03125 44.425781 12.609375 44.792969 14.914062 44.898438 C 17.222656 45.003906 17.964844 45.03125 23.851562 45.03125 C 29.742188 45.03125 30.472656 45.003906 32.789062 44.898438 C 35.097656 44.792969 36.675781 44.425781 38.050781 43.890625 C 39.476562 43.339844 40.683594 42.601562 41.890625 41.394531 C 43.09375 40.1875 43.835938 38.980469 44.386719 37.558594 C 44.917969 36.179688 45.289062 34.605469 45.394531 32.296875 C 45.496094 29.988281 45.527344 29.246094 45.527344 23.359375 C 45.527344 17.46875 45.496094 16.738281 45.394531 14.421875 C 45.289062 12.113281 44.917969 10.535156 44.386719 9.160156 C 43.835938 7.734375 43.09375 6.527344 41.890625 5.324219 C 40.683594 4.117188 39.476562 3.375 38.050781 2.824219 C 36.675781 2.292969 35.097656 1.921875 32.789062 1.816406 C 30.472656 1.722656 29.730469 1.695312 23.84375 1.695312 " fill-opacity="1" fill-rule="nonzero"/></g><path fill="#29261d" d="M 23.84375 12.238281 C 17.699219 12.238281 12.722656 17.214844 12.722656 23.359375 C 12.722656 29.503906 17.707031 34.488281 23.851562 34.488281 C 29.996094 34.488281 34.984375 29.511719 34.984375 23.359375 C 34.976562 17.214844 29.988281 12.238281 23.84375 12.238281 M 23.84375 30.585938 C 19.855469 30.585938 16.625 27.355469 16.625 23.367188 C 16.625 19.378906 19.855469 16.148438 23.84375 16.148438 C 27.832031 16.148438 31.0625 19.378906 31.0625 23.367188 C 31.070312 27.347656 27.832031 30.585938 23.84375 30.585938 " fill-opacity="1" fill-rule="nonzero"/><path fill="#29261d" d="M 38.015625 11.800781 C 38.015625 13.234375 36.847656 14.402344 35.410156 14.402344 C 33.976562 14.402344 32.808594 13.234375 32.808594 11.800781 C 32.808594 10.367188 33.976562 9.199219 35.410156 9.199219 C 36.847656 9.199219 38.015625 10.355469 38.015625 11.800781 " fill-opacity="1" fill-rule="nonzero"/></svg>