<svg xmlns="http://www.w3.org/2000/svg" xmlns:xlink="http://www.w3.org/1999/xlink" width="500" zoomAndPan="magnify" viewBox="0 0 375 74.999997" height="100" preserveAspectRatio="xMidYMid meet" version="1.0"><path fill="#29261d" d="M 2.027344 34.617188 C 3.070312 39.195312 6.679688 41.640625 11.679688 41.640625 C 16.546875 41.640625 19.550781 39.242188 19.550781 35.75 C 19.550781 32 16.636719 30.558594 12.332031 28.425781 C 8.378906 26.460938 6.160156 25.238281 6.160156 22.972656 C 6.160156 21.007812 7.765625 20.046875 10.203125 20.046875 C 13.375 20.046875 14.507812 21.707031 15.074219 23.886719 C 15.636719 25.980469 17.765625 26.066406 18.59375 24.625 C 16.808594 21.269531 14.117188 19.308594 10.160156 19.308594 C 6.769531 19.308594 3.246094 20.660156 3.246094 24.019531 C 3.246094 27.199219 6.074219 28.683594 10.117188 30.777344 C 14.769531 33.179688 16.507812 34.136719 16.507812 36.667969 C 16.507812 39.070312 15.074219 40.941406 11.8125 40.941406 C 7.726562 40.941406 5.8125 38.28125 5.8125 35.664062 C 5.550781 33.222656 3.070312 32.871094 2.027344 34.617188 Z M 2.027344 34.617188 " fill-opacity="1" fill-rule="nonzero"/><path fill="#29261d" d="M 23.933594 5.871094 C 24.277344 9.449219 24.277344 11.800781 24.277344 14.460938 L 24.277344 32.175781 C 24.277344 34.835938 24.277344 37.191406 23.933594 40.769531 L 28.410156 40.769531 C 28.0625 37.191406 28.0625 34.835938 28.0625 32.175781 L 28.0625 14.460938 C 28.0625 11.800781 28.0625 9.449219 28.410156 5.871094 Z M 23.933594 5.871094 " fill-opacity="1" fill-rule="nonzero"/><path fill="#29261d" d="M 45.359375 41.640625 C 52.449219 41.640625 57.488281 37.191406 57.488281 30.472656 C 57.488281 23.800781 52.449219 19.308594 45.359375 19.308594 C 38.273438 19.308594 33.234375 23.800781 33.234375 30.472656 C 33.234375 37.191406 38.273438 41.640625 45.359375 41.640625 Z M 45.359375 40.941406 C 40.101562 40.941406 37.40625 36.796875 37.40625 30.472656 C 37.40625 24.148438 40.101562 20.007812 45.359375 20.007812 C 50.621094 20.007812 53.3125 24.148438 53.3125 30.472656 C 53.3125 36.796875 50.621094 40.941406 45.359375 40.941406 Z M 45.359375 40.941406 " fill-opacity="1" fill-rule="nonzero"/><path fill="#29261d" d="M 84.300781 40.769531 C 83.605469 36.882812 83.605469 35.269531 83.605469 32.609375 L 83.605469 5.871094 L 79.34375 5.871094 C 79.824219 10.058594 79.824219 11.671875 79.824219 14.335938 L 79.824219 23.84375 C 77.777344 21.269531 74.777344 19.308594 71.214844 19.308594 C 66.300781 19.308594 61.566406 23.367188 61.566406 30.472656 C 61.566406 37.628906 65.957031 41.640625 71.515625 41.640625 C 76.085938 41.640625 78.734375 38.851562 79.824219 35.144531 C 79.863281 37.0625 79.910156 38.324219 80.210938 40.769531 Z M 72.652344 40.59375 C 67.691406 40.59375 65.738281 36.058594 65.738281 30.472656 C 65.738281 24.234375 68.167969 20.265625 72.257812 20.265625 C 75.214844 20.265625 78.039062 22.359375 79.824219 24.714844 L 79.824219 30.996094 C 79.824219 36.539062 77.214844 40.59375 72.652344 40.59375 Z M 72.652344 40.59375 " fill-opacity="1" fill-rule="nonzero"/><path fill="#29261d" d="M 107.851562 36.015625 C 105.675781 33.050781 102.765625 30.996094 97.113281 30.210938 C 103.546875 29.953125 108.152344 27.898438 108.152344 23.933594 C 108.152344 20.875 105.980469 19.308594 102.765625 19.308594 C 98.289062 19.308594 95.199219 22.1875 93.984375 27.070312 L 93.984375 14.460938 C 93.984375 11.800781 93.984375 9.449219 94.328125 5.871094 L 89.851562 5.871094 C 90.199219 9.449219 90.199219 11.800781 90.199219 14.460938 L 90.199219 32.175781 C 90.199219 34.835938 90.199219 37.191406 89.851562 40.769531 L 94.328125 40.769531 C 93.984375 37.191406 93.984375 34.835938 93.984375 32.175781 L 93.984375 32.089844 C 93.984375 31.519531 93.984375 30.953125 94.023438 30.386719 C 98.679688 30.777344 101.371094 32.570312 103.894531 36.015625 C 105.414062 38.152344 105.9375 39.070312 106.542969 40.769531 L 111.414062 40.769531 C 110.152344 39.195312 109.375 38.152344 107.851562 36.015625 Z M 101.285156 20.394531 C 103.328125 20.394531 104.503906 21.835938 104.503906 23.933594 C 104.503906 27.859375 100.59375 29.863281 94.070312 29.863281 C 94.636719 23.84375 97.457031 20.394531 101.285156 20.394531 Z M 101.285156 20.394531 " fill-opacity="1" fill-rule="nonzero"/><path fill="#29261d" d="M 127.054688 41.640625 C 134.140625 41.640625 139.183594 37.191406 139.183594 30.472656 C 139.183594 23.800781 134.140625 19.308594 127.054688 19.308594 C 119.96875 19.308594 114.925781 23.800781 114.925781 30.472656 C 114.925781 37.191406 119.96875 41.640625 127.054688 41.640625 Z M 127.054688 40.941406 C 121.792969 40.941406 119.097656 36.796875 119.097656 30.472656 C 119.097656 24.148438 121.792969 20.007812 127.054688 20.007812 C 132.316406 20.007812 135.007812 24.148438 135.007812 30.472656 C 135.007812 36.796875 132.316406 40.941406 127.054688 40.941406 Z M 127.054688 40.941406 " fill-opacity="1" fill-rule="nonzero"/><path fill="#29261d" d="M 142.824219 34.617188 C 143.867188 39.195312 147.472656 41.640625 152.472656 41.640625 C 157.34375 41.640625 160.34375 39.242188 160.34375 35.75 C 160.34375 32 157.429688 30.558594 153.125 28.425781 C 149.171875 26.460938 146.953125 25.238281 146.953125 22.972656 C 146.953125 21.007812 148.5625 20.046875 150.996094 20.046875 C 154.167969 20.046875 155.300781 21.707031 155.867188 23.886719 C 156.429688 25.980469 158.558594 26.066406 159.386719 24.625 C 157.601562 21.269531 154.910156 19.308594 150.953125 19.308594 C 147.5625 19.308594 144.039062 20.660156 144.039062 24.019531 C 144.039062 27.199219 146.867188 28.683594 150.910156 30.777344 C 155.5625 33.179688 157.300781 34.136719 157.300781 36.667969 C 157.300781 39.070312 155.867188 40.941406 152.605469 40.941406 C 148.519531 40.941406 146.609375 38.28125 146.609375 35.664062 C 146.34375 33.222656 143.867188 32.871094 142.824219 34.617188 Z M 142.824219 34.617188 " fill-opacity="1" fill-rule="nonzero"/><path fill="#29261d" d="M 163.988281 30.472656 C 163.988281 37.496094 168.589844 41.640625 174.722656 41.640625 C 180.765625 41.640625 183.460938 37.324219 184.808594 32.832031 L 184.199219 32.832031 C 182.898438 37.015625 180.460938 40.464844 175.898438 40.464844 C 170.464844 40.464844 168.160156 35.535156 168.160156 30.125 C 168.160156 23.800781 170.289062 20.007812 175.027344 20.007812 C 179.027344 20.007812 179.941406 22.925781 180.15625 24.414062 C 180.546875 26.460938 182.765625 26.898438 183.722656 25.328125 C 182.765625 22.359375 179.855469 19.308594 174.855469 19.308594 C 168.589844 19.308594 163.988281 23.492188 163.988281 30.472656 Z M 163.988281 30.472656 " fill-opacity="1" fill-rule="nonzero"/><path fill="#29261d" d="M 192.1875 14.855469 L 195.1875 12.109375 L 192.1875 9.363281 L 189.191406 12.109375 Z M 189.972656 20.179688 C 190.320312 23.453125 190.320312 25.671875 190.320312 28.378906 L 190.320312 32.609375 C 190.320312 35.269531 190.320312 37.496094 189.972656 40.769531 L 194.449219 40.769531 C 194.097656 37.496094 194.097656 35.269531 194.097656 32.609375 L 194.097656 28.378906 C 194.097656 25.671875 194.097656 23.453125 194.449219 20.179688 Z M 189.972656 20.179688 " fill-opacity="1" fill-rule="nonzero"/><path fill="#29261d" d="M 213.488281 19.308594 C 209.921875 19.308594 206.921875 21.269531 204.878906 23.84375 L 204.878906 14.335938 C 204.878906 11.671875 204.878906 10.058594 205.226562 5.871094 L 200.75 5.871094 C 201.09375 10.058594 201.09375 11.671875 201.09375 14.335938 L 201.09375 40.769531 L 205.3125 40.769531 C 205.007812 38.371094 204.921875 36.976562 204.878906 35.183594 C 205.964844 38.894531 208.660156 41.640625 213.222656 41.640625 C 218.746094 41.640625 223.136719 37.628906 223.136719 30.472656 C 223.136719 23.367188 218.441406 19.308594 213.488281 19.308594 Z M 212.054688 40.59375 C 207.484375 40.59375 204.878906 36.539062 204.878906 30.996094 L 204.878906 24.714844 C 206.660156 22.359375 209.484375 20.265625 212.441406 20.265625 C 216.53125 20.265625 218.960938 24.234375 218.960938 30.472656 C 218.960938 36.058594 217.007812 40.59375 212.054688 40.59375 Z M 212.054688 40.59375 " fill-opacity="1" fill-rule="nonzero"/><path fill="#29261d" d="M 245.644531 20.179688 C 245.382812 21.355469 245.292969 21.835938 244.816406 23.144531 L 238.949219 39.941406 L 232.515625 23.144531 C 232.082031 22.011719 231.863281 21.445312 231.644531 20.179688 L 226.820312 20.179688 C 227.558594 21.398438 227.90625 22.054688 228.34375 23.1875 L 235.039062 40.769531 L 238.644531 40.769531 L 238.597656 40.855469 C 237.125 45.042969 235.078125 47.574219 232.648438 47.574219 C 231.339844 47.574219 230.6875 46.875 229.949219 45.609375 C 228.992188 43.78125 226.648438 44.652344 227.035156 46.527344 C 228.46875 47.707031 230.34375 48.273438 232.121094 48.273438 C 235.730469 48.273438 237.6875 45.65625 239.382812 40.769531 L 245.597656 23.1875 C 246.035156 21.878906 246.210938 21.355469 246.816406 20.179688 Z M 245.644531 20.179688 " fill-opacity="1" fill-rule="nonzero"/><path fill="#29261d" d="M 254.109375 14.855469 L 257.113281 12.109375 L 254.109375 9.363281 L 251.113281 12.109375 Z M 251.898438 20.179688 C 252.242188 23.753906 252.242188 25.980469 252.242188 28.683594 L 252.242188 44.261719 C 252.242188 48.054688 251.632812 49.363281 250.023438 50.761719 L 250.328125 51.238281 C 253.113281 49.886719 256.023438 47.75 256.023438 43.386719 L 256.023438 28.683594 C 256.023438 25.980469 256.023438 23.753906 256.375 20.179688 Z M 251.898438 20.179688 " fill-opacity="1" fill-rule="nonzero"/><path fill="#29261d" d="M 277.015625 20.179688 C 277.496094 24.367188 277.496094 25.980469 277.496094 28.683594 L 277.496094 35.183594 C 276.105469 37.890625 273.714844 40.59375 270.367188 40.59375 C 267.585938 40.59375 266.367188 38.503906 266.367188 34.53125 L 266.367188 20.179688 L 262.0625 20.179688 C 262.582031 24.367188 262.582031 25.980469 262.582031 28.683594 L 262.582031 33.398438 C 262.582031 39.195312 264.800781 41.640625 269.0625 41.640625 C 273.191406 41.640625 276.019531 38.804688 277.453125 36.101562 C 277.40625 37.363281 277.367188 38.761719 277.195312 40.769531 L 281.28125 40.769531 L 281.28125 20.179688 Z M 277.015625 20.179688 " fill-opacity="1" fill-rule="nonzero"/><path fill="#29261d" d="M 286.832031 5.871094 C 287.179688 9.449219 287.179688 11.800781 287.179688 14.460938 L 287.179688 32.175781 C 287.179688 34.835938 287.179688 37.191406 286.832031 40.769531 L 291.308594 40.769531 C 290.964844 37.191406 290.964844 34.835938 290.964844 32.175781 L 290.964844 14.460938 C 290.964844 11.800781 290.964844 9.449219 291.308594 5.871094 Z M 286.832031 5.871094 " fill-opacity="1" fill-rule="nonzero"/><path fill="#29261d" d="M 299.867188 14.855469 L 302.867188 12.109375 L 299.867188 9.363281 L 296.871094 12.109375 Z M 297.652344 20.179688 C 298 23.453125 298 25.671875 298 28.378906 L 298 32.609375 C 298 35.269531 298 37.496094 297.652344 40.769531 L 302.132812 40.769531 C 301.78125 37.496094 301.78125 35.269531 301.78125 32.609375 L 301.78125 28.378906 C 301.78125 25.671875 301.78125 23.453125 302.132812 20.179688 Z M 297.652344 20.179688 " fill-opacity="1" fill-rule="nonzero"/><path fill="#29261d" d="M 328.035156 40.769531 C 327.386719 37.496094 327.386719 35.269531 327.386719 32.304688 L 327.386719 25.671875 C 327.339844 21.007812 324.296875 19.308594 319.90625 19.308594 C 315.601562 19.308594 311.605469 21.179688 308.734375 23.1875 C 309.082031 25.328125 311.386719 25.632812 312.734375 23.972656 C 313.910156 22.667969 315.210938 20.007812 319.46875 20.007812 C 322.210938 20.007812 323.601562 21.746094 323.601562 24.890625 C 323.601562 27.59375 321.125 28.292969 317.46875 28.90625 C 312.953125 29.644531 308.125 31.085938 308.125 35.929688 C 308.125 39.894531 311.605469 41.640625 315.210938 41.640625 C 319.949219 41.640625 322.558594 38.980469 323.601562 35.664062 C 323.644531 37.277344 323.734375 38.628906 323.945312 40.769531 Z M 316.863281 40.335938 C 314.210938 40.335938 312.296875 38.628906 312.296875 35.402344 C 312.296875 32.132812 314.253906 30.257812 318.121094 29.425781 C 320.730469 28.859375 322.644531 28.511719 323.601562 27.160156 L 323.601562 31.785156 C 323.601562 36.710938 320.949219 40.335938 316.863281 40.335938 Z M 316.863281 40.335938 " fill-opacity="1" fill-rule="nonzero"/><path fill="#29261d" d="M 185.742188 65.484375 C 186.097656 67.058594 187.339844 67.898438 189.0625 67.898438 C 190.738281 67.898438 191.773438 67.074219 191.773438 65.871094 C 191.773438 64.582031 190.769531 64.082031 189.285156 63.347656 C 187.921875 62.671875 187.164062 62.25 187.164062 61.46875 C 187.164062 60.792969 187.714844 60.464844 188.550781 60.464844 C 189.644531 60.464844 190.035156 61.035156 190.226562 61.785156 C 190.421875 62.507812 191.15625 62.539062 191.445312 62.042969 C 190.828125 60.882812 189.898438 60.207031 188.539062 60.207031 C 187.371094 60.207031 186.160156 60.675781 186.160156 61.832031 C 186.160156 62.925781 187.128906 63.441406 188.523438 64.15625 C 190.125 64.984375 190.722656 65.316406 190.722656 66.1875 C 190.722656 67.011719 190.226562 67.65625 189.105469 67.65625 C 187.699219 67.65625 187.039062 66.742188 187.039062 65.84375 C 186.953125 65.003906 186.097656 64.878906 185.742188 65.484375 Z M 185.742188 65.484375 " fill-opacity="1" fill-rule="nonzero"/><path fill="#29261d" d="M 203.570312 60.511719 C 203.046875 60.449219 202.601562 60.6875 202.792969 61.15625 C 202.972656 61.5625 203.570312 61.949219 203.125 62.988281 L 201.324219 67.144531 L 198.960938 61.652344 C 198.765625 61.230469 198.648438 60.929688 198.574219 60.511719 L 196.898438 60.511719 C 197.167969 60.945312 197.34375 61.246094 197.539062 61.679688 L 198.589844 64.144531 L 197.300781 67.144531 L 194.921875 61.652344 C 194.738281 61.230469 194.621094 60.929688 194.546875 60.511719 L 192.871094 60.511719 C 193.140625 60.945312 193.320312 61.246094 193.5 61.679688 L 196.027344 67.597656 L 197.566406 67.597656 C 197.527344 67.238281 197.632812 66.980469 197.808594 66.5625 L 198.71875 64.457031 L 200.054688 67.597656 L 201.59375 67.597656 C 201.546875 67.238281 201.652344 66.980469 201.835938 66.5625 L 203.480469 62.777344 C 203.871094 61.875 203.765625 61.066406 203.570312 60.511719 Z M 203.570312 60.511719 " fill-opacity="1" fill-rule="nonzero"/><path fill="#29261d" d="M 212.222656 64.910156 C 211.746094 66.546875 210.742188 67.539062 209.277344 67.539062 C 207.359375 67.539062 206.390625 65.84375 206.390625 63.964844 C 206.390625 63.675781 206.402344 63.394531 206.433594 63.136719 L 212.058594 63.136719 C 212.046875 61.632812 210.863281 60.207031 208.753906 60.207031 C 206.730469 60.207031 204.949219 61.667969 204.949219 64.050781 C 204.949219 66.441406 206.691406 67.898438 208.917969 67.898438 C 210.847656 67.898438 211.957031 66.710938 212.453125 64.910156 Z M 208.738281 60.449219 C 210.054688 60.449219 210.671875 61.527344 210.671875 62.914062 L 206.460938 62.914062 C 206.71875 61.351562 207.542969 60.449219 208.738281 60.449219 Z M 208.738281 60.449219 " fill-opacity="1" fill-rule="nonzero"/><path fill="#29261d" d="M 220.96875 64.910156 C 220.492188 66.546875 219.488281 67.539062 218.023438 67.539062 C 216.105469 67.539062 215.136719 65.84375 215.136719 63.964844 C 215.136719 63.675781 215.148438 63.394531 215.179688 63.136719 L 220.804688 63.136719 C 220.792969 61.632812 219.609375 60.207031 217.5 60.207031 C 215.476562 60.207031 213.695312 61.667969 213.695312 64.050781 C 213.695312 66.441406 215.4375 67.898438 217.664062 67.898438 C 219.59375 67.898438 220.699219 66.710938 221.199219 64.910156 Z M 217.484375 60.449219 C 218.800781 60.449219 219.417969 61.527344 219.417969 62.914062 L 215.207031 62.914062 C 215.464844 61.351562 216.289062 60.449219 217.484375 60.449219 Z M 217.484375 60.449219 " fill-opacity="1" fill-rule="nonzero"/><path fill="#29261d" d="M 227.339844 64.535156 C 227.011719 66.832031 226.488281 67.613281 225.78125 67.613281 C 225.230469 67.613281 224.917969 67.179688 224.917969 65.675781 L 224.917969 60.753906 L 227.070312 60.753906 L 227.070312 60.511719 L 223.660156 60.511719 C 225.003906 59.984375 225.210938 58.664062 225.210938 57.402344 L 224.089844 57.402344 C 224.089844 59.023438 224.164062 60.511719 222.191406 60.511719 L 221.996094 60.511719 L 221.996094 60.753906 L 223.613281 60.753906 L 223.613281 65.511719 C 223.613281 67.316406 224.210938 67.972656 225.363281 67.972656 C 226.488281 67.972656 227.175781 67.210938 227.546875 64.535156 Z M 227.339844 64.535156 " fill-opacity="1" fill-rule="nonzero"/><path fill="#29261d" d="M 228.652344 65.484375 C 229.007812 67.058594 230.25 67.898438 231.972656 67.898438 C 233.648438 67.898438 234.683594 67.074219 234.683594 65.871094 C 234.683594 64.582031 233.679688 64.082031 232.195312 63.347656 C 230.832031 62.671875 230.074219 62.25 230.074219 61.46875 C 230.074219 60.792969 230.625 60.464844 231.460938 60.464844 C 232.554688 60.464844 232.945312 61.035156 233.136719 61.785156 C 233.332031 62.507812 234.066406 62.539062 234.355469 62.042969 C 233.738281 60.882812 232.808594 60.207031 231.449219 60.207031 C 230.28125 60.207031 229.070312 60.675781 229.070312 61.832031 C 229.070312 62.925781 230.039062 63.441406 231.433594 64.15625 C 233.03125 64.984375 233.632812 65.316406 233.632812 66.1875 C 233.632812 67.011719 233.136719 67.65625 232.015625 67.65625 C 230.609375 67.65625 229.949219 66.742188 229.949219 65.84375 C 229.863281 65.003906 229.007812 64.878906 228.652344 65.484375 Z M 228.652344 65.484375 " fill-opacity="1" fill-rule="nonzero"/><path fill="#29261d" d="M 246.410156 64.910156 C 246.664062 66.769531 246.140625 67.65625 245.238281 67.65625 C 244.714844 67.65625 244.222656 67.375 243.699219 66.875 C 245.375 65.496094 245.828125 62.914062 244.609375 60.390625 L 243.445312 61.1875 C 244.65625 63.046875 244.550781 65.253906 243.371094 66.546875 C 242.785156 65.929688 242.171875 65.089844 241.5 64.15625 C 240.8125 63.210938 240.058594 62.144531 239.464844 61.09375 C 239.671875 60.960938 239.894531 60.839844 240.136719 60.707031 C 241.800781 59.773438 242.828125 58.992188 242.828125 57.507812 C 242.828125 56.320312 241.933594 55.28125 240.152344 55.28125 C 238.101562 55.28125 237.25 56.515625 237.25 57.882812 C 237.25 58.828125 237.695312 59.984375 238.355469 61.140625 C 237.066406 61.875 235.976562 62.808594 235.976562 64.492188 C 235.976562 66.863281 238.175781 67.898438 240.617188 67.898438 C 241.648438 67.898438 242.535156 67.644531 243.25 67.191406 C 243.894531 67.644531 244.523438 67.898438 245.191406 67.898438 C 246.246094 67.898438 247.425781 67.355469 247.605469 65.464844 Z M 238.253906 57.671875 C 238.253906 56.425781 238.925781 55.523438 240.152344 55.523438 C 241.382812 55.523438 241.828125 56.425781 241.828125 57.402344 C 241.828125 58.480469 241.46875 59.425781 239.746094 60.390625 L 239.222656 60.660156 C 238.640625 59.597656 238.253906 58.558594 238.253906 57.671875 Z M 240.660156 67.65625 C 238.59375 67.65625 237.25 66.382812 237.25 64.457031 C 237.25 63.199219 237.800781 62.355469 238.65625 61.652344 C 239.269531 62.65625 239.988281 63.664062 240.660156 64.535156 C 241.453125 65.542969 242.1875 66.367188 242.921875 66.953125 C 242.335938 67.386719 241.574219 67.65625 240.660156 67.65625 Z M 240.660156 67.65625 " fill-opacity="1" fill-rule="nonzero"/><path fill="#29261d" d="M 249.132812 64.050781 C 249.132812 66.472656 250.722656 67.898438 252.828125 67.898438 C 254.910156 67.898438 255.839844 66.410156 256.300781 64.867188 L 256.089844 64.867188 C 255.644531 66.304688 254.804688 67.492188 253.234375 67.492188 C 251.363281 67.492188 250.570312 65.796875 250.570312 63.933594 C 250.570312 61.757812 251.304688 60.449219 252.933594 60.449219 C 254.308594 60.449219 254.625 61.457031 254.703125 61.96875 C 254.832031 62.671875 255.597656 62.824219 255.925781 62.285156 C 255.597656 61.257812 254.597656 60.207031 252.875 60.207031 C 250.722656 60.207031 249.132812 61.652344 249.132812 64.050781 Z M 249.132812 64.050781 " fill-opacity="1" fill-rule="nonzero"/><path fill="#29261d" d="M 264.554688 67.597656 C 264.328125 66.472656 264.328125 65.707031 264.328125 64.6875 L 264.328125 62.402344 C 264.316406 60.792969 263.269531 60.207031 261.757812 60.207031 C 260.277344 60.207031 258.894531 60.855469 257.90625 61.546875 C 258.03125 62.285156 258.824219 62.386719 259.289062 61.816406 C 259.6875 61.363281 260.140625 60.449219 261.605469 60.449219 C 262.550781 60.449219 263.027344 61.050781 263.027344 62.132812 C 263.027344 63.066406 262.175781 63.300781 260.917969 63.511719 C 259.359375 63.769531 257.699219 64.265625 257.699219 65.929688 C 257.699219 67.296875 258.894531 67.898438 260.140625 67.898438 C 261.769531 67.898438 262.667969 66.980469 263.027344 65.84375 C 263.039062 66.398438 263.074219 66.863281 263.144531 67.597656 Z M 260.710938 67.449219 C 259.792969 67.449219 259.136719 66.863281 259.136719 65.753906 C 259.136719 64.625 259.8125 63.980469 261.140625 63.695312 C 262.039062 63.5 262.699219 63.378906 263.027344 62.914062 L 263.027344 64.503906 C 263.027344 66.199219 262.117188 67.449219 260.710938 67.449219 Z M 260.710938 67.449219 " fill-opacity="1" fill-rule="nonzero"/><path fill="#29261d" d="M 272.554688 65.960938 C 271.800781 64.9375 270.800781 64.234375 268.855469 63.964844 C 271.070312 63.875 272.660156 63.167969 272.660156 61.804688 C 272.660156 60.753906 271.90625 60.207031 270.800781 60.207031 C 269.261719 60.207031 268.195312 61.199219 267.777344 62.882812 L 267.777344 58.542969 C 267.777344 57.625 267.777344 56.816406 267.898438 55.582031 L 266.355469 55.582031 C 266.476562 56.816406 266.476562 57.625 266.476562 58.542969 L 266.476562 64.640625 C 266.476562 65.554688 266.476562 66.367188 266.355469 67.597656 L 267.898438 67.597656 C 267.777344 66.367188 267.777344 65.554688 267.777344 64.640625 L 267.777344 64.609375 C 267.777344 64.414062 267.777344 64.222656 267.792969 64.023438 C 269.394531 64.15625 270.324219 64.773438 271.191406 65.960938 C 271.714844 66.699219 271.894531 67.011719 272.101562 67.597656 L 273.777344 67.597656 C 273.347656 67.058594 273.078125 66.699219 272.554688 65.960938 Z M 270.296875 60.582031 C 270.996094 60.582031 271.402344 61.082031 271.402344 61.804688 C 271.402344 63.152344 270.054688 63.839844 267.808594 63.839844 C 268.003906 61.769531 268.972656 60.582031 270.296875 60.582031 Z M 270.296875 60.582031 " fill-opacity="1" fill-rule="nonzero"/><path fill="#29261d" d="M 282.253906 64.910156 C 281.777344 66.546875 280.773438 67.539062 279.308594 67.539062 C 277.390625 67.539062 276.421875 65.84375 276.421875 63.964844 C 276.421875 63.675781 276.433594 63.394531 276.464844 63.136719 L 282.089844 63.136719 C 282.078125 61.632812 280.894531 60.207031 278.785156 60.207031 C 276.761719 60.207031 274.980469 61.667969 274.980469 64.050781 C 274.980469 66.441406 276.722656 67.898438 278.949219 67.898438 C 280.878906 67.898438 281.984375 66.710938 282.484375 64.910156 Z M 278.769531 60.449219 C 280.085938 60.449219 280.703125 61.527344 280.703125 62.914062 L 276.492188 62.914062 C 276.75 61.351562 277.574219 60.449219 278.769531 60.449219 Z M 278.769531 60.449219 " fill-opacity="1" fill-rule="nonzero"/><path fill="#29261d" d="M 283.582031 65.484375 C 283.9375 67.058594 285.179688 67.898438 286.902344 67.898438 C 288.578125 67.898438 289.613281 67.074219 289.613281 65.871094 C 289.613281 64.582031 288.609375 64.082031 287.125 63.347656 C 285.765625 62.671875 285.003906 62.25 285.003906 61.46875 C 285.003906 60.792969 285.554688 60.464844 286.390625 60.464844 C 287.484375 60.464844 287.878906 61.035156 288.070312 61.785156 C 288.265625 62.507812 288.996094 62.539062 289.285156 62.042969 C 288.667969 60.882812 287.742188 60.207031 286.378906 60.207031 C 285.214844 60.207031 284 60.675781 284 61.832031 C 284 62.925781 284.972656 63.441406 286.367188 64.15625 C 287.964844 64.984375 288.566406 65.316406 288.566406 66.1875 C 288.566406 67.011719 288.070312 67.65625 286.949219 67.65625 C 285.539062 67.65625 284.878906 66.742188 284.878906 65.84375 C 284.792969 65.003906 283.9375 64.878906 283.582031 65.484375 Z M 283.582031 65.484375 " fill-opacity="1" fill-rule="nonzero"/><path fill="#29261d" d="M 295.179688 71.789062 L 295.839844 71.789062 C 295.707031 66.546875 295.707031 59.773438 295.839844 54.53125 L 295.179688 54.53125 C 295.304688 59.773438 295.304688 66.546875 295.179688 71.789062 Z M 295.179688 71.789062 " fill-opacity="1" fill-rule="nonzero"/><path fill="#29261d" d="M 310.292969 67.597656 L 311.816406 67.597656 C 311.699219 66.160156 311.699219 65.601562 311.699219 64.6875 L 311.699219 62.730469 C 311.699219 61.050781 311.148438 60.207031 310.007812 60.207031 C 308.796875 60.207031 307.925781 61.230469 307.449219 62.132812 C 307.332031 60.855469 306.773438 60.207031 305.785156 60.207031 C 304.574219 60.207031 303.707031 61.246094 303.257812 62.144531 C 303.273438 61.652344 303.304688 61.140625 303.363281 60.511719 L 301.820312 60.511719 C 301.941406 61.632812 301.941406 62.402344 301.941406 63.335938 L 301.941406 64.792969 C 301.941406 65.707031 301.941406 66.472656 301.820312 67.597656 L 303.363281 67.597656 C 303.242188 66.472656 303.242188 65.707031 303.242188 64.792969 L 303.242188 62.554688 C 303.722656 61.605469 304.398438 60.628906 305.339844 60.628906 C 305.996094 60.628906 306.179688 61.230469 306.179688 62.449219 L 306.179688 64.6875 C 306.179688 65.601562 306.179688 66.160156 306.054688 67.597656 L 307.597656 67.597656 C 307.476562 66.160156 307.476562 65.601562 307.476562 64.6875 L 307.476562 62.476562 C 307.972656 61.5625 308.648438 60.628906 309.558594 60.628906 C 310.21875 60.628906 310.410156 61.230469 310.410156 62.449219 L 310.410156 64.6875 C 310.410156 65.601562 310.410156 66.160156 310.292969 67.597656 Z M 310.292969 67.597656 " fill-opacity="1" fill-rule="nonzero"/><path fill="#29261d" d="M 320.472656 67.597656 C 320.25 66.472656 320.25 65.707031 320.25 64.6875 L 320.25 62.402344 C 320.234375 60.792969 319.1875 60.207031 317.675781 60.207031 C 316.195312 60.207031 314.816406 60.855469 313.828125 61.546875 C 313.949219 62.285156 314.742188 62.386719 315.207031 61.816406 C 315.605469 61.363281 316.058594 60.449219 317.523438 60.449219 C 318.46875 60.449219 318.945312 61.050781 318.945312 62.132812 C 318.945312 63.066406 318.09375 63.300781 316.835938 63.511719 C 315.28125 63.769531 313.617188 64.265625 313.617188 65.929688 C 313.617188 67.296875 314.816406 67.898438 316.058594 67.898438 C 317.6875 67.898438 318.585938 66.980469 318.945312 65.84375 C 318.960938 66.398438 318.992188 66.863281 319.0625 67.597656 Z M 316.628906 67.449219 C 315.710938 67.449219 315.054688 66.863281 315.054688 65.753906 C 315.054688 64.625 315.730469 63.980469 317.058594 63.695312 C 317.957031 63.5 318.617188 63.378906 318.945312 62.914062 L 318.945312 64.503906 C 318.945312 66.199219 318.035156 67.449219 316.628906 67.449219 Z M 316.628906 67.449219 " fill-opacity="1" fill-rule="nonzero"/><path fill="#29261d" d="M 322.019531 64.050781 C 322.019531 66.472656 323.609375 67.898438 325.71875 67.898438 C 327.796875 67.898438 328.726562 66.410156 329.1875 64.867188 L 328.976562 64.867188 C 328.53125 66.304688 327.695312 67.492188 326.121094 67.492188 C 324.25 67.492188 323.457031 65.796875 323.457031 63.933594 C 323.457031 61.757812 324.191406 60.449219 325.820312 60.449219 C 327.195312 60.449219 327.511719 61.457031 327.589844 61.96875 C 327.722656 62.671875 328.484375 62.824219 328.8125 62.285156 C 328.484375 61.257812 327.484375 60.207031 325.761719 60.207031 C 323.609375 60.207031 322.019531 61.652344 322.019531 64.050781 Z M 322.019531 64.050781 " fill-opacity="1" fill-rule="nonzero"/><path fill="#29261d" d="M 337.441406 67.597656 C 337.21875 66.472656 337.21875 65.707031 337.21875 64.6875 L 337.21875 62.402344 C 337.203125 60.792969 336.15625 60.207031 334.644531 60.207031 C 333.164062 60.207031 331.785156 60.855469 330.796875 61.546875 C 330.917969 62.285156 331.710938 62.386719 332.175781 61.816406 C 332.578125 61.363281 333.027344 60.449219 334.492188 60.449219 C 335.4375 60.449219 335.914062 61.050781 335.914062 62.132812 C 335.914062 63.066406 335.0625 63.300781 333.804688 63.511719 C 332.25 63.769531 330.585938 64.265625 330.585938 65.929688 C 330.585938 67.296875 331.785156 67.898438 333.027344 67.898438 C 334.65625 67.898438 335.554688 66.980469 335.914062 65.84375 C 335.929688 66.398438 335.960938 66.863281 336.03125 67.597656 Z M 333.597656 67.449219 C 332.679688 67.449219 332.023438 66.863281 332.023438 65.753906 C 332.023438 64.625 332.699219 63.980469 334.027344 63.695312 C 334.925781 63.5 335.585938 63.378906 335.914062 62.914062 L 335.914062 64.503906 C 335.914062 66.199219 335.003906 67.449219 333.597656 67.449219 Z M 333.597656 67.449219 " fill-opacity="1" fill-rule="nonzero"/><path fill="#29261d" d="M 344.375 60.511719 C 342.671875 60.242188 341.800781 61.140625 340.664062 62.371094 C 340.683594 61.804688 340.710938 61.230469 340.785156 60.511719 L 339.242188 60.511719 C 339.367188 61.632812 339.367188 62.402344 339.367188 63.335938 L 339.367188 64.792969 C 339.367188 65.707031 339.367188 66.472656 339.242188 67.597656 L 340.785156 67.597656 C 340.664062 66.472656 340.664062 65.707031 340.664062 64.792969 L 340.664062 62.71875 C 342.117188 61.230469 342.625 61.140625 343.347656 61.398438 C 344.140625 61.667969 344.542969 61.171875 344.375 60.511719 Z M 344.375 60.511719 " fill-opacity="1" fill-rule="nonzero"/><path fill="#29261d" d="M 349.652344 67.898438 C 352.09375 67.898438 353.832031 66.367188 353.832031 64.050781 C 353.832031 61.757812 352.09375 60.207031 349.652344 60.207031 C 347.21875 60.207031 345.476562 61.757812 345.476562 64.050781 C 345.476562 66.367188 347.21875 67.898438 349.652344 67.898438 Z M 349.652344 67.65625 C 347.847656 67.65625 346.917969 66.230469 346.917969 64.050781 C 346.917969 61.875 347.847656 60.449219 349.652344 60.449219 C 351.464844 60.449219 352.394531 61.875 352.394531 64.050781 C 352.394531 66.230469 351.464844 67.65625 349.652344 67.65625 Z M 349.652344 67.65625 " fill-opacity="1" fill-rule="nonzero"/><path fill="#29261d" d="M 360.644531 67.597656 L 362.171875 67.597656 C 362.050781 66.160156 362.050781 65.601562 362.050781 64.6875 L 362.050781 63.046875 C 362.050781 61.050781 361.285156 60.207031 359.820312 60.207031 C 358.386719 60.207031 357.410156 61.199219 356.917969 62.144531 C 356.933594 61.652344 356.964844 61.140625 357.023438 60.511719 L 355.480469 60.511719 C 355.601562 61.632812 355.601562 62.402344 355.601562 63.335938 L 355.601562 64.792969 C 355.601562 65.707031 355.601562 66.472656 355.480469 67.597656 L 357.023438 67.597656 C 356.902344 66.472656 356.902344 65.707031 356.902344 64.792969 L 356.902344 62.554688 C 357.382812 61.605469 358.203125 60.582031 359.375 60.582031 C 360.332031 60.582031 360.761719 61.292969 360.761719 62.65625 L 360.761719 64.6875 C 360.761719 65.601562 360.761719 66.160156 360.644531 67.597656 Z M 360.644531 67.597656 " fill-opacity="1" fill-rule="nonzero"/><path fill="#29261d" d="M 363.691406 65.484375 C 364.046875 67.058594 365.289062 67.898438 367.011719 67.898438 C 368.6875 67.898438 369.722656 67.074219 369.722656 65.871094 C 369.722656 64.582031 368.71875 64.082031 367.234375 63.347656 C 365.875 62.671875 365.113281 62.25 365.113281 61.46875 C 365.113281 60.792969 365.664062 60.464844 366.5 60.464844 C 367.59375 60.464844 367.988281 61.035156 368.179688 61.785156 C 368.375 62.507812 369.105469 62.539062 369.394531 62.042969 C 368.777344 60.882812 367.851562 60.207031 366.488281 60.207031 C 365.320312 60.207031 364.109375 60.675781 364.109375 61.832031 C 364.109375 62.925781 365.082031 63.441406 366.472656 64.15625 C 368.074219 64.984375 368.675781 65.316406 368.675781 66.1875 C 368.675781 67.011719 368.179688 67.65625 367.058594 67.65625 C 365.648438 67.65625 364.988281 66.742188 364.988281 65.84375 C 364.902344 65.003906 364.046875 64.878906 363.691406 65.484375 Z M 363.691406 65.484375 " fill-opacity="1" fill-rule="nonzero"/></svg>