<svg width="24" height="24" viewBox="0 0 24 24" fill="none" xmlns="http://www.w3.org/2000/svg">
<path d="M17.9814 0H5.99947C2.70518 0 0 2.70518 0 6.01861V17.9984C0 21.2948 2.70518 24 5.99947 24H17.9814C21.2948 24 24 21.2948 24 17.9793V6.01861C24 2.70518 21.2948 0 17.9814 0ZM15.2188 11.9989H12.9517V19.4276H10.0955V11.9989H8.57067V8.95135H9.90412V7.65618C9.90412 6.43757 10.5145 4.51289 13.0857 4.51289H15.4293V7.04794H13.7726C13.5047 7.04794 13.1431 7.21808 13.1431 7.8093V8.95135H15.4868L15.2188 11.9989Z" fill="white"/>
</svg>
