<svg width="25" height="26" viewBox="0 0 25 26" fill="none" xmlns="http://www.w3.org/2000/svg">
<path d="M12.4121 6.88403C8.95581 6.88403 6.15649 9.68335 6.15649 13.1396C6.15649 16.5959 8.96021 19.3997 12.4165 19.3997C15.8728 19.3997 18.6787 16.6003 18.6787 13.1396C18.6743 9.68335 15.8684 6.88403 12.4121 6.88403ZM12.4121 17.2046C10.1687 17.2046 8.35156 15.3875 8.35156 13.144C8.35156 10.9006 10.1687 9.0835 12.4121 9.0835C14.6555 9.0835 16.4727 10.9006 16.4727 13.144C16.4771 15.3831 14.6555 17.2046 12.4121 17.2046Z" fill="white"/>
<path d="M20.3838 6.63794C20.3838 7.44434 19.7268 8.10132 18.9182 8.10132C18.1118 8.10132 17.4548 7.44434 17.4548 6.63794C17.4548 5.83154 18.1118 5.17456 18.9182 5.17456C19.7268 5.17456 20.3838 5.82495 20.3838 6.63794Z" fill="white"/>
<path d="M12.4121 3.14868C15.6663 3.14868 16.0508 3.15967 17.3384 3.21899C18.5227 3.27173 19.1709 3.46948 19.6038 3.64087C20.1685 3.8584 20.575 4.12647 21.0034 4.55493C21.4297 4.9812 21.6912 5.3877 21.9153 5.95459C22.0823 6.38086 22.28 7.02686 22.3372 8.21777C22.3965 9.50537 22.4075 9.89209 22.4075 13.144C22.4075 16.3982 22.3965 16.7827 22.3372 18.0703C22.2844 19.2568 22.0867 19.9028 21.9153 20.3357C21.6978 20.9026 21.4297 21.3069 21.0034 21.7354C20.575 22.1616 20.1685 22.4253 19.6038 22.6494C19.1753 22.8142 18.5293 23.012 17.3384 23.0713C16.0508 23.1284 15.6663 23.1394 12.4121 23.1394C9.15796 23.1394 8.77344 23.1284 7.48584 23.0713C6.29932 23.0164 5.65332 22.8186 5.22046 22.6494C4.65576 22.4297 4.24927 22.1616 3.8208 21.7354C3.39453 21.3069 3.13306 20.9026 2.90894 20.3357C2.74194 19.9072 2.54419 19.2612 2.48486 18.0703C2.42773 16.7827 2.41675 16.3982 2.41675 13.144C2.41675 9.89209 2.42773 9.50537 2.48486 8.21777C2.53979 7.03345 2.73755 6.38745 2.90894 5.95459C3.12646 5.3877 3.39453 4.9812 3.8208 4.55493C4.24927 4.12647 4.65576 3.86499 5.22046 3.64087C5.64893 3.47388 6.29492 3.27612 7.48584 3.21899C8.77344 3.15967 9.15796 3.14868 12.4121 3.14868ZM12.4121 0.953613C9.09863 0.953613 8.68774 0.968994 7.38477 1.02832C6.08618 1.08765 5.20068 1.29419 4.42505 1.59522C3.62305 1.90503 2.94629 2.32031 2.26733 2.99927C1.59277 3.67822 1.17749 4.35718 0.867675 5.15698C0.568847 5.93262 0.360107 6.81812 0.300781 8.1167C0.241455 9.41528 0.226074 9.83276 0.226074 13.1396C0.226074 16.4509 0.241455 16.8618 0.300781 18.167C0.360107 19.4656 0.568847 20.3511 0.867675 21.1267C1.17749 21.9265 1.59277 22.6055 2.27173 23.2844C2.95068 23.9634 3.62964 24.3787 4.42944 24.6885C5.20508 24.9895 6.09277 25.196 7.38916 25.2554C8.68774 25.3147 9.10523 25.3301 12.4165 25.3301C15.73 25.3301 16.1409 25.3147 17.4438 25.2554C18.7424 25.196 19.6301 24.9895 20.4036 24.6885C21.2056 24.3787 21.8845 23.9634 22.5635 23.2844C23.2402 22.6055 23.6577 21.9265 23.9675 21.1267C24.2664 20.3511 24.4751 19.4656 24.5344 18.167C24.5916 16.8684 24.6091 16.4509 24.6091 13.1396C24.6091 9.82617 24.5916 9.41528 24.5344 8.1123C24.4751 6.81372 24.2664 5.92603 23.9675 5.15259C23.6577 4.35059 23.2402 3.67163 22.5635 2.99487C21.8845 2.31592 21.2056 1.89844 20.4036 1.58862C19.6301 1.2898 18.7424 1.08105 17.4438 1.02173C16.1409 0.968994 15.7234 0.953613 12.4121 0.953613Z" fill="white"/>
</svg>
